# AST/ASF file generated using VICON BodyLanguage
# -----------------------------------------------
:version 1.10
:name VICON
:units
  mass 1.0
  length 0.45
  angle deg
:documentation
   .ast/.asf automatically generated from VICON data using
   VICON BodyBuilder and BodyLanguage model FoxedUp or BRILLIANT.MOD
:root
   order TX TY TZ RX RY RZ
   axis XYZ
   position 0 0 0  
   orientation 0 0 0 
:bonedata
  begin
     id 1 
     name lhipjoint
     direction 0.646657 -0.683706 0.338203 
     length 2.4948 
     axis 0 0 0  XYZ
  end
  begin
     id 2 
     name lfemur
     direction 0.34202 -0.939693 0  
     length 6.79491  
     axis 0 0 20  XYZ
    dof rx ry rz
    limits (-160.0 20.0)
           (-70.0 70.0)
           (-60.0 70.0)
  end
  begin
     id 3 
     name ltibia
     direction 0.34202 -0.939693 0   
     length 7.56807   
     axis 0 0 20   XYZ
    dof rx
    limits (-10.0 170.0)
  end
  begin
     id 4 
     name lfoot
     direction 0.0679796 -0.186772 0.980048   
     length 2.53018   
     axis -90 7.62852e-016 20   XYZ
    dof rx rz
    limits (-45.0 90.0)
           (-70.0 20.0)
  end
  begin
     id 5 
     name ltoes
     direction 1.53625e-011 -4.21881e-011 1   
     length 1.26912   
     axis -90 7.62852e-016 20   XYZ
    dof rx
    limits (-90.0 20.0)
  end
  begin
     id 6 
     name rhipjoint
     direction -0.618868 -0.704065 0.348274   
     length 2.42265  
     axis 0 0 0  XYZ 
  end
  begin
     id 7 
     name rfemur
     direction -0.34202 -0.939693 0   
     length 6.73814   
     axis 0 0 -20   XYZ
    dof rx ry rz
    limits (-160.0 20.0)
           (-70.0 70.0)
           (-70.0 60.0)
  end
  begin
     id 8 
     name rtibia
     direction -0.34202 -0.939693 0   
     length 7.66799   
     axis 0 0 -20   XYZ
    dof rx
    limits (-10.0 170.0)
 end
 begin
     id 9 
     name rfoot
     direction -0.0727352 -0.199838 0.977125   
     length 2.57224  
     axis -90 -7.62852e-016 -20   XYZ
    dof rx rz
    limits (-45.0 90.0)
           (-20.0 70.0)
  end
  begin
     id 10 
     name rtoes
     direction -1.53501e-011 -4.21858e-011 1   
     length 1.28858   
     axis -90 -7.62852e-016 -20   XYZ
    dof rx
    limits (-90.0 20.0)
  end
  begin
     id 11 
     name lowerback
     direction -0.0172471 0.995767 -0.0902851   
     length 2.20206   
     axis 0 0 0   XYZ
    dof rx ry rz
    limits (-20.0 45.0)
           (-30.0 30.0)
           (-30.0 30.0)
  end
  begin
     id 12 
     name upperback
     direction -0.000110737 0.999714 0.0239043   
     length 2.19523   
     axis 0 0 0   XYZ
    dof rx ry rz
    limits (-20.0 45.0)
           (-30.0 30.0)
           (-30.0 30.0)
  end
  begin
     id 13 
     name thorax
     direction 0.00704869 0.997783 0.0661741   
     length 2.21977   
     axis 0 0 0   XYZ
    dof rx ry rz
    limits (-20.0 45.0)
           (-30.0 30.0)
           (-30.0 30.0)
  end
  begin
     id 14 
     name lowerneck
     direction -0.00407501 0.995527 0.0943846   
     length 1.83142   
     axis 0 0 0   XYZ
    dof rx ry rz
    limits (-20.0 45.0)
           (-30.0 30.0)
           (-30.0 30.0)
  end
  begin
     id 15 
     name upperneck
     direction 0.0640586 0.986486 -0.150807   
     length 1.84616   
     axis 0 0 0   XYZ
    dof rx ry rz
    limits (-20.0 45.0)
           (-30.0 30.0)
           (-30.0 30.0)
  end
  begin
     id 16
     name head
     direction 0.0188017 0.99791 -0.0618239  
     length 1.85932  
     axis 0 0 0   XYZ
    dof rx ry rz
    limits (-20.0 45.0)
           (-30.0 30.0)
           (-30.0 30.0)
  end
  begin
     id 17 
     name lclavicle
     direction 0.976074 0.206905 0.066852  
     length 3.81043  
     axis 0 0 0   XYZ
    dof ry rz
    limits (-20.0 10.0)
           (0.0 20.0)
  end
  begin
     id 18 
     name lhumerus
     direction 1 -4.48971e-011 1.86916e-027   
     length 5.37587   
     axis 180 -30 -90   XYZ
    dof rx ry rz
    limits (-60.0 90.0)
           (-90.0 90.0)
           (-90.0 90.0)
  end
  begin
     id 19
     name lradius
     direction 1 -4.48968e-011 1.69187e-027   
     length 3.35977   
     axis 180 -30 -90   XYZ
    dof rx
    limits (-10.0 170.0)
  end
  begin
     id 20
     name lwrist
     direction 1 -4.48968e-011 5.8978e-027   
     length 1.67988   
     axis -3.27506e-015 90 90   XYZ
    dof ry
    limits (-180.0 0.0)
 end
  begin
     id 21 
     name lhand
     direction 1 -4.49028e-011 1.18071e-026   
     length 0.561859   
     axis -7.52654e-015 90 90   XYZ
    dof rx rz
    limits (-90.0 90.0)
           (-45.0 45.0)
  end
  begin
     id 22 
     name lfingers
     direction 1 -4.48927e-011 2.35758e-026   
     length 0.452985   
     axis -1.50534e-014 90 90   XYZ
    dof rx
    limits (0.0 90.0)
  end
  begin
     id 23
     name lthumb
     direction 0.707107 -6.34898e-011 0.707107   
     length 0.650399   
     axis -90 45 5.69224e-014   XYZ
    dof rx rz
    limits (-45.0 45.0)
           (-45.0 45.0)
  end
  begin
     id 24 
     name rclavicle
     direction -0.988403 0.151789 0.00439714   
     length 3.6942  
     axis 0 0 0   XYZ 
    dof ry rz
    limits (-10.0 20.0)
           (-20.0 0.0)
  end
  begin
     id 25 
     name rhumerus
     direction -1 -4.48978e-011 1.62495e-027  
     length 5.22819   
     axis 180 30 90   XYZ
    dof rx ry rz
    limits (-90.0 60.0)
           (-90.0 90.0)
           (-90.0 90.0)
  end
  begin
     id 26 
     name rradius
     direction -1 -4.48961e-011 3.47796e-027   
     length 3.40764   
     axis 180 30 90   XYZ
    dof rx
    limits (-10.0 170.0)
  end
  begin
     id 27 
     name rwrist
     direction -1 -4.48949e-011 5.89602e-027   
     length 1.70382   
     axis -3.27506e-015 -90 -90   XYZ
    dof ry
    limits (-180.0 0.0)
  end
  begin
     id 28
     name rhand
     direction -1 -4.48977e-011 1.17973e-026   
     length 0.583255   
     axis -7.52654e-015 -90 -90   XYZ
    dof rx rz
    limits (-90.0 90.0)
           (-45.0 45.0)
  end
  begin
     id 29
     name rfingers
     direction -1 -4.49099e-011 2.36408e-026   
     length 0.470235   
     axis -1.50534e-014 -90 -90   XYZ
    dof rx
    limits (0.0 90.0)
  end
  begin
     id 30
     name rthumb
     direction -0.707107 -6.35011e-011 0.707107   
     length 0.675167   
     axis -90 -45 -5.69224e-014   XYZ
    dof rx rz
    limits (-45.0 45.0)
           (-45.0 45.0)
  end
:hierarchy
  begin
    root lhipjoint rhipjoint lowerback
    lhipjoint lfemur
    lfemur ltibia
    ltibia lfoot
    lfoot ltoes
    rhipjoint rfemur
    rfemur rtibia
    rtibia rfoot
    rfoot rtoes
    lowerback upperback
    upperback thorax
    thorax lowerneck lclavicle rclavicle
    lowerneck upperneck
    upperneck head
    lclavicle lhumerus
    lhumerus lradius
    lradius lwrist
    lwrist lhand lthumb
    lhand lfingers
    rclavicle rhumerus
    rhumerus rradius
    rradius rwrist
    rwrist rhand rthumb
    rhand rfingers
  end

#!OML:ASF G:\JayActor3\Patient Classification 1\Patient 1\Session 2\male.ASF
:FULLY-SPECIFIED
:DEGREES
664
root -29.2161 16.5461 -5.53722 822.192 -84.4848 -827.095
lowerback -0.468269 3.39857 3.61076
upperback 2.91723 4.40768 0.609327
thorax 3.49315 2.27452 -1.22489
lowerneck -12.1853 -4.07356 -3.12123
upperneck 6.23619 -5.84698 8.75066
head 4.21185 -2.50885 2.77065
rclavicle 3.56818e-014 1.23246e-014
rhumerus -24.2733 22.3497 -92.1409
rradius 72.4462
rwrist -19.0733
rhand -29.5119 2.31053
rfingers 7.12502
rthumb -2.84607 -27.6502
lclavicle 3.56818e-014 1.23246e-014
lhumerus -57.7642 13.7486 75.8027
lradius 18.0742
lwrist 7.28112
lhand -14.1643 18.0177
lfingers 7.12502
lthumb 11.9706 47.6555
rfemur -4.00527 0.614803 30.1382
rtibia 41.1094
rfoot -20.0275 -1.82502
rtoes 18.9826
lfemur -26.5419 -1.49548 -10.61
ltibia 25.497
lfoot -11.1837 -3.13393
ltoes -12.213
665
root -29.3686 16.5405 -5.52405 827.498 -84.1068 -832.315
lowerback -0.661177 3.51778 3.80396
upperback 2.90939 4.55577 0.565375
thorax 3.62129 2.356 -1.35694
lowerneck -11.9696 -3.98507 -3.05824
upperneck 6.28175 -5.74932 8.79039
head 4.18417 -2.46193 2.7835
rclavicle 4.48881e-014 3.97569e-015
rhumerus -24.3297 22.3787 -92.3418
rradius 72.8566
rwrist -18.754
rhand -29.6219 2.37062
rfingers 7.12502
rthumb -2.95229 -27.5887
lclavicle 4.48881e-014 3.97569e-015
lhumerus -57.7409 14.6766 74.5919
lradius 16.896
lwrist 5.43134
lhand -13.4627 18.0571
lfingers 7.12502
lthumb 12.6472 47.6542
rfemur -3.38423 0.508824 30.2296
rtibia 40.8402
rfoot -20.0156 -1.43653
rtoes 19.17
lfemur -26.3067 -1.8312 -10.2537
ltibia 23.9388
lfoot -11.2265 -2.81749
ltoes -11.6579
666
root -29.5226 16.5343 -5.50968 832.219 -83.6371 -836.928
lowerback -0.880806 3.64226 4.0505
upperback 2.87708 4.70824 0.525803
thorax 3.74489 2.44101 -1.51176
lowerneck -11.7531 -3.90147 -3.00553
upperneck 6.37399 -5.66091 8.83939
head 4.17172 -2.41821 2.7998
rclavicle -5.16716e-014 5.56597e-015
rhumerus -24.4527 22.3908 -92.5832
rradius 73.1399
rwrist -18.4656
rhand -29.6968 2.47663
rfingers 7.12502
rthumb -3.02465 -27.4817
lclavicle -5.16716e-014 5.56597e-015
lhumerus -57.7642 15.7691 73.1126
lradius 15.6811
lwrist 3.26036
lhand -12.8229 18.0239
lfingers 7.12502
lthumb 13.2639 47.5819
rfemur -2.77865 0.409651 30.357
rtibia 40.5669
rfoot -20.0002 -1.08096
rtoes 19.3046
lfemur -26.0997 -2.05361 -9.88738
ltibia 22.6366
lfoot -11.2929 -2.51358
ltoes -11.1491
667
root -29.6778 16.5277 -5.49404 836.264 -83.1019 -840.833
lowerback -1.13938 3.76451 4.33271
upperback 2.82423 4.85436 0.489063
thorax 3.87325 2.52386 -1.68054
lowerneck -11.5517 -3.82199 -2.95191
upperneck 6.5149 -5.58107 8.88313
head 4.17682 -2.37737 2.81313
rclavicle -5.32494e-014 -5.56597e-015
rhumerus -24.6225 22.405 -92.8559
rradius 73.2824
rwrist -18.2052
rhand -29.7325 2.62145
rfingers 7.12502
rthumb -3.05909 -27.3364
lclavicle -5.32494e-014 -5.56597e-015
lhumerus -57.8646 17.0349 71.3588
lradius 14.4765
lwrist 0.79704
lhand -12.3054 17.932
lfingers 7.12502
lthumb 13.7627 47.4568
rfemur -2.20696 0.294588 30.4965
rtibia 40.3041
rfoot -19.9765 -0.745257
rtoes 19.3903
lfemur -25.9462 -2.14443 -9.54788
ltibia 21.6191
lfoot -11.3796 -2.25896
ltoes -10.7038
668
root -29.8342 16.5197 -5.47731 839.633 -82.527 -844.046
lowerback -1.41699 3.88051 4.6341
upperback 2.75567 4.98948 0.454921
thorax 3.99845 2.60166 -1.8559
lowerneck -11.3785 -3.74331 -2.89859
upperneck 6.70087 -5.50497 8.92212
head 4.20032 -2.33678 2.82413
rclavicle -3.67379e-014 -4.77083e-015
rhumerus -24.84 22.4226 -93.1533
rradius 73.2869
rwrist -17.9789
rhand -29.7351 2.80531
rfingers 7.12502
rthumb -3.06161 -27.1525
lclavicle -3.67379e-014 -4.77083e-015
lhumerus -58.0801 18.4883 69.2976
lradius 13.3078
lwrist -1.97143
lhand -11.9515 17.7886
lfingers 7.12502
lthumb 14.1038 47.2899
rfemur -1.65881 0.140054 30.63
rtibia 40.068
rfoot -19.9342 -0.422486
rtoes 19.2975
lfemur -25.8413 -2.10129 -9.26089
ltibia 20.9046
lfoot -11.464 -2.08766
ltoes -10.3823
669
root -29.9917 16.5101 -5.45974 842.367 -81.9251 -846.62
lowerback -1.70598 3.98658 4.94976
upperback 2.68621 5.10812 0.427987
thorax 4.13021 2.67169 -2.03073
lowerneck -11.2444 -3.66161 -2.84555
upperneck 6.91343 -5.42601 8.95578
head 4.23797 -2.29338 2.83311
rclavicle -9.83984e-015 3.97569e-015
rhumerus -25.0827 22.4508 -93.4587
rradius 73.1534
rwrist -17.7814
rhand -29.7095 3.00031
rfingers 7.12502
rthumb -3.03688 -26.9578
lclavicle -9.83984e-015 3.97569e-015
lhumerus -58.4238 20.0983 66.9732
lradius 12.2238
lwrist -4.9554
lhand -11.7931 17.6208
lfingers 7.12502
lthumb 14.2564 47.1115
rfemur -1.13504 -0.052509 30.7539
rtibia 39.8807
rfoot -19.8652 -0.0923793
rtoes 19.1023
lfemur -25.7681 -1.93392 -9.02869
ltibia 20.4834
lfoot -11.5085 -2.05346
ltoes -10.0859
670
root -30.1494 16.4986 -5.4414 844.585 -81.3258 -848.686
lowerback -1.98442 4.07843 5.25732
upperback 2.61761 5.20651 0.40508
thorax 4.25556 2.73132 -2.1981
lowerneck -11.1551 -3.57631 -2.7828
upperneck 7.14816 -5.3431 8.97083
head 4.28873 -2.24698 2.83442
rclavicle -2.94823e-014 -7.95139e-015
rhumerus -25.3583 22.4842 -93.7678
rradius 72.893
rwrist -17.5991
rhand -29.6691 3.15397
rfingers 7.12502
rthumb -2.9979 -26.8047
lclavicle -2.94823e-014 -7.95139e-015
lhumerus -58.9021 21.7874 64.4825
lradius 11.2736
lwrist -8.00362
lhand -11.8347 17.4893
lfingers 7.12502
lthumb 14.2163 46.9828
rfemur -0.642791 -0.277372 30.8433
rtibia 39.7679
rfoot -19.7489 0.273016
rtoes 18.858
lfemur -25.7057 -1.68804 -8.86149
ltibia 20.3308
lfoot -11.4838 -2.15888
ltoes -9.78739
671
root -30.3066 16.4853 -5.42263 846.354 -80.7482 -850.337
lowerback -2.22791 4.14885 5.54234
upperback 2.56406 5.27676 0.38599
thorax 4.37302 2.77638 -2.35247
lowerneck -11.0996 -3.4801 -2.71142
upperneck 7.37331 -5.24477 8.97575
head 4.34073 -2.19262 2.83202
rclavicle -8.05078e-015 -4.77083e-015
rhumerus -25.6586 22.5226 -94.0759
rradius 72.5208
rwrist -17.4192
rhand -29.6212 3.23476
rfingers 7.12502
rthumb -2.9516 -26.7246
lclavicle -8.05078e-015 -4.77083e-015
lhumerus -59.4764 23.4649 61.9687
lradius 10.4895
lwrist -10.9238
lhand -12.059 17.4104
lfingers 7.12502
lthumb 14.0001 46.9189
rfemur -0.176308 -0.515389 30.8955
rtibia 39.7589
rfoot -19.5886 0.666614
rtoes 18.63
lfemur -25.6055 -1.42416 -8.74591
ltibia 20.3912
lfoot -11.3433 -2.39287
ltoes -9.46611
672
root -30.4623 16.4698 -5.40379 847.843 -80.1975 -851.756
lowerback -2.41442 4.20149 5.7909
upperback 2.52658 5.32632 0.36936
thorax 4.47008 2.81 -2.48915
lowerneck -11.08 -3.37317 -2.62474
upperneck 7.58162 -5.13056 8.96182
head 4.39175 -2.13046 2.82216
rclavicle 4.7845e-014 -1.82882e-014
rhumerus -25.9896 22.5616 -94.3811
rradius 72.0418
rwrist -17.2308
rhand -29.577 3.25036
rfingers 7.12502
rthumb -2.90895 -26.7095
lclavicle 4.7845e-014 -1.82882e-014
lhumerus -59.1371 23.7916 61.905
lradius 9.88666
lwrist -11.1317
lhand -12.7335 17.7436
lfingers 7.12502
lthumb 13.3501 47.2959
rfemur 0.259637 -0.747262 30.9068
rtibia 39.8821
rfoot -19.3703 1.07152
rtoes 18.3485
lfemur -25.4295 -1.21445 -8.65413
ltibia 20.6
lfoot -11.0446 -2.74807
ltoes -9.00887
673
root -30.6162 16.4532 -5.38492 849.151 -79.6966 -853.053
lowerback -2.52867 4.23004 5.97919
upperback 2.50815 5.34979 0.34916
thorax 4.53849 2.82879 -2.60314
lowerneck -11.0726 -3.25501 -2.52506
upperneck 7.75996 -4.99873 8.93114
head 4.43395 -2.06052 2.80632
rclavicle -1.07344e-014 -2.8625e-014
rhumerus -26.3539 22.5992 -94.6883
rradius 71.4614
rwrist -17.0201
rhand -29.5387 3.18715
rfingers 7.12502
rthumb -2.87196 -26.7733
lclavicle -1.07344e-014 -2.8625e-014
lhumerus -58.848 24.1155 61.8109
lradius 9.47588
lwrist -11.2345
lhand -13.4611 18.0319
lfingers 7.12502
lthumb 12.6487 47.6289
rfemur 0.660305 -0.960912 30.8599
rtibia 40.1606
rfoot -19.0876 1.47435
rtoes 18.1229
lfemur -25.1472 -1.14031 -8.5776
ltibia 20.8939
lfoot -10.5606 -3.17536
ltoes -8.34773
